<svg width="810" height="274" viewBox="0 0 810 274" fill="none" xmlns="http://www.w3.org/2000/svg">
<g clip-path="url(#clip0)">
<path d="M607.08 135.65H629V197.83C620.827 204.502 611.48 209.589 601.44 212.83C590.862 216.34 579.785 218.109 568.64 218.07C552.54 218.07 538.037 214.537 525.13 207.47C512.53 200.702 502.015 190.623 494.72 178.32C487.353 165.94 483.687 152.007 483.72 136.52C483.753 121.033 487.42 107.06 494.72 94.6C501.99 82.2382 512.557 72.1446 525.24 65.45C538.2 58.4833 552.787 55 569 55C580.874 54.8375 592.669 56.9629 603.74 61.26C613.863 65.259 622.931 71.5343 630.24 79.6L616.2 93.73C603.44 81.43 588.04 75.28 570 75.28C557.853 75.28 546.96 77.9 537.32 83.14C527.86 88.1709 519.992 95.7414 514.6 105C509.066 114.582 506.232 125.486 506.4 136.55C506.253 147.539 509.087 158.363 514.6 167.87C519.996 177.147 527.843 184.759 537.28 189.87C547.234 195.278 558.413 198.033 569.74 197.87C584.007 197.87 596.457 194.453 607.09 187.62L607.08 135.65Z" fill="#282B34"/>
<path d="M801.62 147.63C796.287 140.87 788.997 136.203 779.75 133.63C786.15 130.55 791.556 125.734 795.35 119.73C799.223 113.657 801.16 106.443 801.16 98.09C801.16 85.1767 796.187 75.0767 786.24 67.79C776.293 60.5033 762.213 56.8567 744 56.85H672.46V75.3H741.93C753.63 75.3 762.63 77.4633 768.93 81.79C775.23 86.1167 778.38 92.45 778.38 100.79C778.38 109.15 775.23 115.483 768.93 119.79C762.63 124.097 753.63 126.263 741.93 126.29H672.46V144.74H747.63C773.63 144.74 786.613 153.623 786.58 171.39C786.58 180.503 783.317 187.17 776.79 191.39C770.263 195.61 760.543 197.737 747.63 197.77H672.46V216.22H748.54C768.427 216.22 783.573 212.5 793.98 205.06C804.387 197.62 809.59 186.99 809.59 173.17C809.59 162.903 806.933 154.39 801.62 147.63Z" fill="#282B34"/>
<path d="M424.62 162.71C435.86 158.77 444.527 152.47 450.62 143.81C456.713 135.15 459.75 124.67 459.73 112.37C459.73 95.0367 453.81 81.4467 441.97 71.6C430.13 61.7533 413.87 56.8167 393.19 56.79H331V76.61H392.51C406.93 76.61 417.93 79.6833 425.51 85.83C433.09 91.9767 436.883 100.823 436.89 112.37C436.89 123.91 433.097 132.793 425.51 139.02C417.923 145.247 406.923 148.36 392.51 148.36H331V216.24H353.78V167.72H393.19C395.62 167.72 398.96 167.58 403.19 167.27L437.59 216.27H462.42L424.62 162.71Z" fill="#282B34"/>
</g>
<g clip-path="url(#clip1)">
<path d="M113.6 0L23.9 54.3L40.2 82.5H227V68.6L113.6 0Z" fill="#282B34"/>
<path d="M106.1 215.8L15.4 58.7L0 68V205.2L82.3 255.1L106.1 215.8Z" fill="#282B34"/>
<path d="M90.9 260L113.6 273.8L227 205.2V91.5H192.9L90.9 260Z" fill="#282B34"/>
</g>
<defs>
<clipPath id="clip0">
<rect width="478.59" height="163.07" fill="white" transform="translate(331 55)"/>
</clipPath>
<clipPath id="clip1">
<rect width="227" height="273.8" fill="white"/>
</clipPath>
</defs>
</svg>
