<svg width="479" height="541" viewBox="0 0 479 541" fill="none" xmlns="http://www.w3.org/2000/svg">
<g clip-path="url(#clip0)">
<path d="M276.08 458.45H298V520.63C289.827 527.302 280.48 532.389 270.44 535.63C259.862 539.14 248.785 540.909 237.64 540.87C221.54 540.87 207.037 537.337 194.13 530.27C181.53 523.502 171.015 513.423 163.72 501.12C156.353 488.74 152.687 474.807 152.72 459.32C152.753 443.833 156.42 429.86 163.72 417.4C170.99 405.038 181.557 394.945 194.24 388.25C207.2 381.283 221.787 377.8 238 377.8C249.874 377.638 261.669 379.763 272.74 384.06C282.863 388.059 291.931 394.334 299.24 402.4L285.2 416.53C272.44 404.23 257.04 398.08 239 398.08C226.853 398.08 215.96 400.7 206.32 405.94C196.86 410.971 188.992 418.541 183.6 427.8C178.066 437.382 175.232 448.286 175.4 459.35C175.253 470.339 178.087 481.163 183.6 490.67C188.996 499.947 196.843 507.559 206.28 512.67C216.234 518.078 227.413 520.833 238.74 520.67C253.007 520.67 265.457 517.253 276.09 510.42L276.08 458.45Z" fill="#282B34"/>
<path d="M470.62 470.43C465.287 463.67 457.997 459.003 448.75 456.43C455.15 453.35 460.556 448.534 464.35 442.53C468.223 436.457 470.16 429.243 470.16 420.89C470.16 407.977 465.187 397.877 455.24 390.59C445.293 383.303 431.213 379.657 413 379.65H341.46V398.1H410.93C422.63 398.1 431.63 400.263 437.93 404.59C444.23 408.917 447.38 415.25 447.38 423.59C447.38 431.95 444.23 438.283 437.93 442.59C431.63 446.897 422.63 449.063 410.93 449.09H341.46V467.54H416.63C442.63 467.54 455.613 476.423 455.58 494.19C455.58 503.303 452.317 509.97 445.79 514.19C439.263 518.41 429.543 520.537 416.63 520.57H341.46V539.02H417.54C437.427 539.02 452.573 535.3 462.98 527.86C473.387 520.42 478.59 509.79 478.59 495.97C478.59 485.703 475.933 477.19 470.62 470.43Z" fill="#282B34"/>
<path d="M93.62 485.51C104.86 481.57 113.527 475.27 119.62 466.61C125.713 457.95 128.75 447.47 128.73 435.17C128.73 417.837 122.81 404.247 110.97 394.4C99.13 384.553 82.87 379.617 62.19 379.59H0V399.41H61.51C75.93 399.41 86.93 402.483 94.51 408.63C102.09 414.777 105.883 423.623 105.89 435.17C105.89 446.71 102.097 455.593 94.51 461.82C86.9233 468.047 75.9233 471.16 61.51 471.16H0V539.04H22.78V490.52H62.19C64.62 490.52 67.96 490.38 72.19 490.07L106.59 539.07H131.42L93.62 485.51Z" fill="#282B34"/>
</g>
<g clip-path="url(#clip1)">
<path d="M239.6 0L149.9 54.3L166.2 82.5H353V68.6L239.6 0Z" fill="#282B34"/>
<path d="M232.1 215.8L141.4 58.7L126 68V205.2L208.3 255.1L232.1 215.8Z" fill="#282B34"/>
<path d="M216.9 260L239.6 273.8L353 205.2V91.5H318.9L216.9 260Z" fill="#282B34"/>
</g>
<defs>
<clipPath id="clip0">
<rect width="478.59" height="163.07" fill="white" transform="translate(0 377.8)"/>
</clipPath>
<clipPath id="clip1">
<rect width="227" height="273.8" fill="white" transform="translate(126)"/>
</clipPath>
</defs>
</svg>
