<svg width="479" height="277" viewBox="0 0 479 277" fill="none" xmlns="http://www.w3.org/2000/svg">
<g clip-path="url(#clip0)">
<path d="M276.1 136.8H298V199C289.8 205.7 280.5 210.8 270.4 214C259.8 217.5 248.7 219.3 237.6 219.2C221.5 219.2 207 215.7 194.1 208.6C181.5 201.8 171 191.8 163.7 179.5C156.3 167.1 152.6 153.2 152.7 137.7C152.7 122.2 156.4 108.2 163.7 95.8C171 83.4 181.5 73.3 194.2 66.6C207.2 59.7 221.8 56.2 238.1 56.2C250 56 261.8 58.2 272.8 62.5C282.9 66.5 292 72.8 299.3 80.8L285.2 94.9C272.4 82.6 257 76.5 239 76.5C226.8 76.5 216 79.1 206.3 84.4C196.9 89.4 189 97 183.6 106.3C178.1 115.9 175.2 126.8 175.4 137.8C175.3 148.8 178.1 159.6 183.6 169.1C189 178.4 196.8 186 206.3 191.1C216.3 196.5 227.4 199.3 238.8 199.1C253.1 199.1 265.5 195.7 276.1 188.9V136.8Z" fill="#78797F"/>
<path d="M470.6 148.8C465.3 142.1 458 137.4 448.7 134.8C455.1 131.7 460.5 126.9 464.3 120.9C468.2 114.8 470.1 107.6 470.1 99.3C470.1 86.4 465.1 76.3 455.2 69.1C445.3 61.9 431.2 58.2 412.9 58.1H341.4V76.6H410.9C422.6 76.6 431.6 78.8 437.9 83.1C444.2 87.4 447.4 93.8 447.4 102.1C447.4 110.5 444.2 116.8 437.9 121.1C431.6 125.4 422.6 127.6 410.9 127.6H341.4V146H416.6C442.6 146 455.6 154.9 455.6 172.6C455.6 181.7 452.3 188.4 445.8 192.6C439.3 196.8 429.6 198.9 416.6 199H341.4V217.4H417.5C437.4 217.4 452.5 213.7 462.9 206.2C473.3 198.8 478.5 188.1 478.5 174.3C478.6 164.1 475.9 155.6 470.6 148.8Z" fill="#78797F"/>
<path d="M93.6 163.9C104.8 160 113.5 153.7 119.6 145C125.7 136.3 128.7 125.9 128.7 113.6C128.7 96.3 122.8 82.7 110.9 72.8C99.1 63 82.9 58 62.2 58H0V77.8H61.5C75.9 77.8 86.9 80.9 94.5 87C102.1 93.1 105.9 102 105.9 113.5C105.9 125 102.1 133.9 94.5 140.2C86.9 146.5 75.9 149.5 61.5 149.5H0V217.4H22.8V169H62.2C64.6 169 68 168.9 72.2 168.6L106.6 217.6H131.4L93.6 163.9Z" fill="#78797F"/>
</g>
<defs>
<clipPath id="clip0">
<rect width="478.6" height="276.3" fill="white"/>
</clipPath>
</defs>
</svg>
