<svg width="810" height="277" viewBox="0 0 810 277" fill="none" xmlns="http://www.w3.org/2000/svg">
<g clip-path="url(#clip0)">
<path d="M607.1 136.8H629V199C620.8 205.7 611.5 210.8 601.4 214C590.8 217.5 579.7 219.3 568.6 219.2C552.5 219.2 538 215.7 525.1 208.6C512.5 201.8 502 191.8 494.7 179.5C487.3 167.1 483.6 153.2 483.7 137.7C483.7 122.2 487.4 108.2 494.7 95.8C502 83.4 512.5 73.3 525.2 66.6C538.2 59.7 552.8 56.2 569.1 56.2C581 56 592.8 58.2 603.8 62.5C613.9 66.5 623 72.8 630.3 80.8L616.2 94.9C603.4 82.6 588 76.5 570 76.5C557.8 76.5 547 79.1 537.3 84.4C527.9 89.4 520 97 514.6 106.3C509.1 115.9 506.2 126.8 506.4 137.8C506.3 148.8 509.1 159.6 514.6 169.1C520 178.4 527.8 186 537.3 191.1C547.3 196.5 558.4 199.3 569.8 199.1C584.1 199.1 596.5 195.7 607.1 188.9V136.8Z" fill="white"/>
<path d="M801.6 148.8C796.3 142.1 789 137.4 779.7 134.8C786.1 131.7 791.5 126.9 795.3 120.9C799.2 114.8 801.1 107.6 801.1 99.3C801.1 86.4 796.1 76.3 786.2 69.1C776.3 61.9 762.2 58.2 743.9 58.1H672.4V76.6H741.9C753.6 76.6 762.6 78.8 768.9 83.1C775.2 87.4 778.4 93.8 778.4 102.1C778.4 110.5 775.2 116.8 768.9 121.1C762.6 125.4 753.6 127.6 741.9 127.6H672.4V146H747.6C773.6 146 786.6 154.9 786.6 172.6C786.6 181.7 783.3 188.4 776.8 192.6C770.3 196.8 760.6 198.9 747.6 199H672.4V217.4H748.5C768.4 217.4 783.5 213.7 793.9 206.2C804.3 198.8 809.5 188.1 809.5 174.3C809.6 164.1 806.9 155.6 801.6 148.8Z" fill="white"/>
<path d="M424.6 163.9C435.8 160 444.5 153.7 450.6 145C456.7 136.3 459.7 125.9 459.7 113.6C459.7 96.3 453.8 82.7 441.9 72.8C430.1 63 413.9 58 393.2 58H331V77.8H392.5C406.9 77.8 417.9 80.9 425.5 87C433.1 93.1 436.9 102 436.9 113.5C436.9 125 433.1 133.9 425.5 140.2C417.9 146.5 406.9 149.5 392.5 149.5H331V217.4H353.8V169H393.2C395.6 169 399 168.9 403.2 168.6L437.6 217.6H462.4L424.6 163.9Z" fill="white"/>
</g>
<g clip-path="url(#clip1)">
<path d="M113.6 1L23.9 55.3L40.2 83.5H227V69.6L113.6 1Z" fill="white"/>
<path d="M106.1 216.8L15.4 59.7L0 69V206.2L82.3 256.1L106.1 216.8Z" fill="white"/>
<path d="M90.9 261L113.6 274.8L227 206.2V92.5H192.9L90.9 261Z" fill="white"/>
</g>
<defs>
<clipPath id="clip0">
<rect width="478.6" height="276.3" fill="white" transform="translate(331)"/>
</clipPath>
<clipPath id="clip1">
<rect width="227" height="273.8" fill="white" transform="translate(0 1)"/>
</clipPath>
</defs>
</svg>
