<svg width="810" height="277" viewBox="0 0 810 277" fill="none" xmlns="http://www.w3.org/2000/svg">
<g clip-path="url(#clip0)">
<path d="M607.1 136.8H629V199C620.8 205.7 611.5 210.8 601.4 214C590.8 217.5 579.7 219.3 568.6 219.2C552.5 219.2 538 215.7 525.1 208.6C512.5 201.8 502 191.8 494.7 179.5C487.3 167.1 483.6 153.2 483.7 137.7C483.7 122.2 487.4 108.2 494.7 95.8C502 83.4 512.5 73.3 525.2 66.6C538.2 59.7 552.8 56.2 569.1 56.2C581 56 592.8 58.2 603.8 62.5C613.9 66.5 623 72.8 630.3 80.8L616.2 94.9C603.4 82.6 588 76.5 570 76.5C557.8 76.5 547 79.1 537.3 84.4C527.9 89.4 520 97 514.6 106.3C509.1 115.9 506.2 126.8 506.4 137.8C506.3 148.8 509.1 159.6 514.6 169.1C520 178.4 527.8 186 537.3 191.1C547.3 196.5 558.4 199.3 569.8 199.1C584.1 199.1 596.5 195.7 607.1 188.9V136.8Z" fill="#78797F"/>
<path d="M801.6 148.8C796.3 142.1 789 137.4 779.7 134.8C786.1 131.7 791.5 126.9 795.3 120.9C799.2 114.8 801.1 107.6 801.1 99.3C801.1 86.4 796.1 76.3 786.2 69.1C776.3 61.9 762.2 58.2 743.9 58.1H672.4V76.6H741.9C753.6 76.6 762.6 78.8 768.9 83.1C775.2 87.4 778.4 93.8 778.4 102.1C778.4 110.5 775.2 116.8 768.9 121.1C762.6 125.4 753.6 127.6 741.9 127.6H672.4V146H747.6C773.6 146 786.6 154.9 786.6 172.6C786.6 181.7 783.3 188.4 776.8 192.6C770.3 196.8 760.6 198.9 747.6 199H672.4V217.4H748.5C768.4 217.4 783.5 213.7 793.9 206.2C804.3 198.8 809.5 188.1 809.5 174.3C809.6 164.1 806.9 155.6 801.6 148.8Z" fill="#78797F"/>
<path d="M424.6 163.9C435.8 160 444.5 153.7 450.6 145C456.7 136.3 459.7 125.9 459.7 113.6C459.7 96.3 453.8 82.7 441.9 72.8C430.1 63 413.9 58 393.2 58H331V77.8H392.5C406.9 77.8 417.9 80.9 425.5 87C433.1 93.1 436.9 102 436.9 113.5C436.9 125 433.1 133.9 425.5 140.2C417.9 146.5 406.9 149.5 392.5 149.5H331V217.4H353.8V169H393.2C395.6 169 399 168.9 403.2 168.6L437.6 217.6H462.4L424.6 163.9Z" fill="#78797F"/>
</g>
<g clip-path="url(#clip1)">
<path d="M113.6 1L23.9 55.3L40.2 83.5H227V69.6L113.6 1Z" fill="url(#paint0_radial)"/>
<path d="M106.1 216.8L15.4 59.7L0 69V206.2L82.3 256.1L106.1 216.8Z" fill="url(#paint1_radial)"/>
<path d="M90.9 261L113.6 274.8L227 206.2V92.5H192.9L90.9 261Z" fill="url(#paint2_linear)"/>
<path d="M222 204.2L223.1 98.2L113.5 270.7L222 204.2Z" fill="url(#paint3_linear)"/>
<path d="M222.3 96.5C222.8 96.5 223.1 120.7 222.9 150.5C222.7 180.3 222.1 204.5 221.6 204.5C221.1 204.5 220.8 180.3 221 150.5C221.2 120.7 221.8 96.5 222.3 96.5Z" fill="url(#paint4_radial)"/>
<path d="M225.528 201.898C225.795 202.32 205.504 215.511 180.213 231.273C154.922 247.034 134.149 259.464 133.882 259.042C133.614 258.619 153.906 245.429 179.197 229.667C204.488 213.905 225.261 201.475 225.528 201.898Z" fill="url(#paint5_radial)"/>
<path d="M5.59998 201.2L83.2 244.9L6.99998 82.8L5.59998 201.2Z" fill="url(#paint6_linear)"/>
<path d="M6.29999 96.5C6.79999 96.5 7.09999 120.7 6.89999 150.5C6.69999 180.3 6.09999 204.5 5.59999 204.5C5.09999 204.5 4.79999 180.3 4.99999 150.5C5.29999 120.6 5.79999 96.5 6.29999 96.5Z" fill="url(#paint7_radial)"/>
<path d="M69.2574 240.651C68.9928 241.075 54.2901 232.256 36.4865 220.913C18.6829 209.569 4.45664 199.986 4.7213 199.562C4.98596 199.138 19.6887 207.957 37.4922 219.301C55.3029 230.766 69.5221 240.227 69.2574 240.651Z" fill="url(#paint8_radial)"/>
<path d="M115 11.5L35.9 57L220.4 71.5L115 11.5Z" fill="url(#paint9_linear)"/>
<path d="M108 6.5C108.4 5.9 133.3 19.9 163.7 37.8C194.1 55.7 218.4 70.8 218 71.4C217.6 72 192.7 58 162.3 40.1C131.9 22.2 107.6 7.1 108 6.5Z" fill="url(#paint10_radial)"/>
<path d="M98.4 21C98.4 21.2 85.1 29.4 74.9 35.2C64.7 41 56 45.6 56 45.5C56 45.3 64.7 40.5 74.9 34.6C85.1 28.7 98.4 20.8 98.4 21Z" fill="white"/>
</g>
<defs>
<radialGradient id="paint0_radial" cx="0" cy="0" r="1" gradientUnits="userSpaceOnUse" gradientTransform="translate(125.465 42.23) scale(78.7467)">
<stop offset="0.13" stop-color="#FFEF00"/>
<stop offset="0.19" stop-color="#FFE403"/>
<stop offset="0.3" stop-color="#FFC60A"/>
<stop offset="0.45" stop-color="#FF9615"/>
<stop offset="0.63" stop-color="#FF5425"/>
<stop offset="0.8" stop-color="#FF0F36"/>
</radialGradient>
<radialGradient id="paint1_radial" cx="0" cy="0" r="1" gradientUnits="userSpaceOnUse" gradientTransform="translate(53.055 157.88) scale(78.9305)">
<stop offset="0.19" stop-color="#1BEB39"/>
<stop offset="0.45" stop-color="#24DF2E"/>
<stop offset="0.91" stop-color="#3DC00F"/>
<stop offset="1" stop-color="#42B909"/>
</radialGradient>
<linearGradient id="paint2_linear" x1="90.89" y1="183.625" x2="227" y2="183.625" gradientUnits="userSpaceOnUse">
<stop stop-color="#16E4DD"/>
<stop offset="0.5" stop-color="#0B34D9" stop-opacity="0.8"/>
</linearGradient>
<linearGradient id="paint3_linear" x1="264" y1="98" x2="123.787" y2="189.21" gradientUnits="userSpaceOnUse">
<stop stop-color="white"/>
<stop offset="0.08" stop-color="white" stop-opacity="0.8"/>
<stop offset="0.17" stop-color="white" stop-opacity="0.62"/>
<stop offset="0.26" stop-color="white" stop-opacity="0.45"/>
<stop offset="0.36" stop-color="white" stop-opacity="0.31"/>
<stop offset="0.46" stop-color="white" stop-opacity="0.2"/>
<stop offset="0.57" stop-color="white" stop-opacity="0.11"/>
<stop offset="0.68" stop-color="white" stop-opacity="0.05"/>
<stop offset="0.82" stop-color="white" stop-opacity="0.01"/>
<stop offset="1" stop-color="white" stop-opacity="0"/>
</linearGradient>
<radialGradient id="paint4_radial" cx="0" cy="0" r="1" gradientUnits="userSpaceOnUse" gradientTransform="translate(222.003 149.659) rotate(-89.6347) scale(54.4816 0.930495)">
<stop offset="0.2" stop-color="white"/>
<stop offset="0.59" stop-color="white" stop-opacity="0.04"/>
<stop offset="1" stop-color="white" stop-opacity="0"/>
</radialGradient>
<radialGradient id="paint5_radial" cx="0" cy="0" r="1" gradientUnits="userSpaceOnUse" gradientTransform="translate(180.444 230.065) rotate(-31.9506) scale(54.4816 0.930495)">
<stop offset="0.2" stop-color="white"/>
<stop offset="0.59" stop-color="white" stop-opacity="0.04"/>
<stop offset="1" stop-color="white" stop-opacity="0"/>
</radialGradient>
<linearGradient id="paint6_linear" x1="59.5835" y1="260.953" x2="42.5049" y2="93.5821" gradientUnits="userSpaceOnUse">
<stop stop-color="white" stop-opacity="0"/>
<stop offset="0.18" stop-color="white" stop-opacity="0.01"/>
<stop offset="0.32" stop-color="white" stop-opacity="0.05"/>
<stop offset="0.43" stop-color="white" stop-opacity="0.11"/>
<stop offset="0.54" stop-color="white" stop-opacity="0.2"/>
<stop offset="0.64" stop-color="white" stop-opacity="0.31"/>
<stop offset="0.74" stop-color="white" stop-opacity="0.45"/>
<stop offset="0.83" stop-color="white" stop-opacity="0.62"/>
<stop offset="0.92" stop-color="white" stop-opacity="0.8"/>
<stop offset="1" stop-color="white"/>
</linearGradient>
<radialGradient id="paint7_radial" cx="0" cy="0" r="1" gradientUnits="userSpaceOnUse" gradientTransform="translate(6.00303 149.659) rotate(-89.6347) scale(54.4816 0.930497)">
<stop offset="0.2" stop-color="white"/>
<stop offset="0.59" stop-color="white" stop-opacity="0.04"/>
<stop offset="1" stop-color="white" stop-opacity="0"/>
</radialGradient>
<radialGradient id="paint8_radial" cx="0" cy="0" r="1" gradientUnits="userSpaceOnUse" gradientTransform="translate(37.4669 220.467) rotate(32.4755) scale(38.5934 0.930479)">
<stop offset="0.2" stop-color="white"/>
<stop offset="0.59" stop-color="white" stop-opacity="0.04"/>
<stop offset="1" stop-color="white" stop-opacity="0"/>
</radialGradient>
<linearGradient id="paint9_linear" x1="53" y1="31.5" x2="197.14" y2="98.2888" gradientUnits="userSpaceOnUse">
<stop stop-color="white"/>
<stop offset="0.08" stop-color="white" stop-opacity="0.8"/>
<stop offset="0.17" stop-color="white" stop-opacity="0.62"/>
<stop offset="0.26" stop-color="white" stop-opacity="0.45"/>
<stop offset="0.36" stop-color="white" stop-opacity="0.31"/>
<stop offset="0.46" stop-color="white" stop-opacity="0.2"/>
<stop offset="0.57" stop-color="white" stop-opacity="0.11"/>
<stop offset="0.68" stop-color="white" stop-opacity="0.05"/>
<stop offset="0.82" stop-color="white" stop-opacity="0.01"/>
<stop offset="1" stop-color="white" stop-opacity="0"/>
</linearGradient>
<radialGradient id="paint10_radial" cx="0" cy="0" r="1" gradientUnits="userSpaceOnUse" gradientTransform="translate(162.445 39.7078) rotate(-149.437) scale(64.4362 1.34306)">
<stop offset="0.2" stop-color="white"/>
<stop offset="0.59" stop-color="white" stop-opacity="0.04"/>
<stop offset="1" stop-color="white" stop-opacity="0"/>
</radialGradient>
<clipPath id="clip0">
<rect width="478.6" height="276.3" fill="white" transform="translate(331)"/>
</clipPath>
<clipPath id="clip1">
<rect width="227" height="273.8" fill="white" transform="translate(0 1)"/>
</clipPath>
</defs>
</svg>
