<svg width="479" height="164" viewBox="0 0 479 164" fill="none" xmlns="http://www.w3.org/2000/svg">
<g clip-path="url(#clip0)">
<path d="M276.08 80.65H298V142.83C289.827 149.502 280.48 154.589 270.44 157.83C259.862 161.34 248.785 163.109 237.64 163.07C221.54 163.07 207.037 159.537 194.13 152.47C181.53 145.702 171.015 135.623 163.72 123.32C156.353 110.94 152.687 97.0067 152.72 81.52C152.753 66.0333 156.42 52.06 163.72 39.6C170.99 27.2382 181.557 17.1446 194.24 10.45C207.2 3.48334 221.787 7.28294e-06 238 7.28294e-06C249.874 -0.162467 261.669 1.96288 272.74 6.26001C282.863 10.259 291.931 16.5343 299.24 24.6L285.2 38.73C272.44 26.43 257.04 20.28 239 20.28C226.853 20.28 215.96 22.9 206.32 28.14C196.86 33.1709 188.992 40.7414 183.6 50C178.066 59.5825 175.232 70.4856 175.4 81.55C175.253 92.5391 178.087 103.363 183.6 112.87C188.996 122.147 196.843 129.759 206.28 134.87C216.234 140.278 227.413 143.033 238.74 142.87C253.007 142.87 265.457 139.453 276.09 132.62L276.08 80.65Z" fill="#282B34"/>
<path d="M470.62 92.63C465.287 85.87 457.997 81.2033 448.75 78.63C455.15 75.5503 460.556 70.7339 464.35 64.73C468.223 58.6567 470.16 51.4433 470.16 43.09C470.16 30.1767 465.187 20.0767 455.24 12.79C445.293 5.50334 431.213 1.85667 413 1.85001H341.46V20.3H410.93C422.63 20.3 431.63 22.4633 437.93 26.79C444.23 31.1167 447.38 37.45 447.38 45.79C447.38 54.15 444.23 60.4833 437.93 64.79C431.63 69.0967 422.63 71.2633 410.93 71.29H341.46V89.74H416.63C442.63 89.74 455.613 98.6233 455.58 116.39C455.58 125.503 452.317 132.17 445.79 136.39C439.263 140.61 429.543 142.737 416.63 142.77H341.46V161.22H417.54C437.427 161.22 452.573 157.5 462.98 150.06C473.387 142.62 478.59 131.99 478.59 118.17C478.59 107.903 475.933 99.39 470.62 92.63Z" fill="#282B34"/>
<path d="M93.62 107.71C104.86 103.77 113.527 97.47 119.62 88.81C125.713 80.15 128.75 69.67 128.73 57.37C128.73 40.0367 122.81 26.4467 110.97 16.6C99.13 6.75334 82.87 1.81668 62.19 1.79001H0V21.61H61.51C75.93 21.61 86.93 24.6833 94.51 30.83C102.09 36.9767 105.883 45.8233 105.89 57.37C105.89 68.91 102.097 77.7933 94.51 84.02C86.9233 90.2467 75.9233 93.36 61.51 93.36H0V161.24H22.78V112.72H62.19C64.62 112.72 67.96 112.58 72.19 112.27L106.59 161.27H131.42L93.62 107.71Z" fill="#282B34"/>
</g>
<defs>
<clipPath id="clip0">
<rect width="478.59" height="163.07" fill="white"/>
</clipPath>
</defs>
</svg>
