<svg width="479" height="541" viewBox="0 0 479 541" fill="none" xmlns="http://www.w3.org/2000/svg">
<g clip-path="url(#clip0)">
<path d="M276.08 458.45H298V520.63C289.827 527.302 280.48 532.389 270.44 535.63C259.862 539.14 248.785 540.909 237.64 540.87C221.54 540.87 207.037 537.337 194.13 530.27C181.53 523.502 171.015 513.423 163.72 501.12C156.353 488.74 152.687 474.807 152.72 459.32C152.753 443.833 156.42 429.86 163.72 417.4C170.99 405.038 181.557 394.945 194.24 388.25C207.2 381.283 221.787 377.8 238 377.8C249.874 377.638 261.669 379.763 272.74 384.06C282.863 388.059 291.931 394.334 299.24 402.4L285.2 416.53C272.44 404.23 257.04 398.08 239 398.08C226.853 398.08 215.96 400.7 206.32 405.94C196.86 410.971 188.992 418.541 183.6 427.8C178.066 437.382 175.232 448.286 175.4 459.35C175.253 470.339 178.087 481.163 183.6 490.67C188.996 499.947 196.843 507.559 206.28 512.67C216.234 518.078 227.413 520.833 238.74 520.67C253.007 520.67 265.457 517.253 276.09 510.42L276.08 458.45Z" fill="#78797F"/>
<path d="M470.62 470.43C465.287 463.67 457.997 459.003 448.75 456.43C455.15 453.35 460.556 448.534 464.35 442.53C468.223 436.457 470.16 429.243 470.16 420.89C470.16 407.977 465.187 397.877 455.24 390.59C445.293 383.303 431.213 379.657 413 379.65H341.46V398.1H410.93C422.63 398.1 431.63 400.263 437.93 404.59C444.23 408.917 447.38 415.25 447.38 423.59C447.38 431.95 444.23 438.283 437.93 442.59C431.63 446.897 422.63 449.063 410.93 449.09H341.46V467.54H416.63C442.63 467.54 455.613 476.423 455.58 494.19C455.58 503.303 452.317 509.97 445.79 514.19C439.263 518.41 429.543 520.537 416.63 520.57H341.46V539.02H417.54C437.427 539.02 452.573 535.3 462.98 527.86C473.387 520.42 478.59 509.79 478.59 495.97C478.59 485.703 475.933 477.19 470.62 470.43Z" fill="#78797F"/>
<path d="M93.62 485.51C104.86 481.57 113.527 475.27 119.62 466.61C125.713 457.95 128.75 447.47 128.73 435.17C128.73 417.837 122.81 404.247 110.97 394.4C99.13 384.553 82.87 379.617 62.19 379.59H0V399.41H61.51C75.93 399.41 86.93 402.483 94.51 408.63C102.09 414.777 105.883 423.623 105.89 435.17C105.89 446.71 102.097 455.593 94.51 461.82C86.9233 468.047 75.9233 471.16 61.51 471.16H0V539.04H22.78V490.52H62.19C64.62 490.52 67.96 490.38 72.19 490.07L106.59 539.07H131.42L93.62 485.51Z" fill="#78797F"/>
</g>
<g clip-path="url(#clip1)">
<path d="M239.6 0L149.9 54.3L166.2 82.5H353V68.6L239.6 0Z" fill="url(#paint0_radial)"/>
<path d="M232.1 215.8L141.4 58.7L126 68V205.2L208.3 255.1L232.1 215.8Z" fill="url(#paint1_radial)"/>
<path d="M216.9 260L239.6 273.8L353 205.2V91.5H318.9L216.9 260Z" fill="url(#paint2_linear)"/>
<path d="M348 203.2L349.1 97.2L239.5 269.7L348 203.2Z" fill="url(#paint3_linear)"/>
<path d="M348.3 95.5C348.8 95.5 349.1 119.7 348.9 149.5C348.7 179.3 348.1 203.5 347.6 203.5C347.1 203.5 346.8 179.3 347 149.5C347.2 119.7 347.8 95.5 348.3 95.5Z" fill="url(#paint4_radial)"/>
<path d="M351.528 200.898C351.796 201.32 331.504 214.511 306.213 230.273C280.922 246.034 260.149 258.464 259.882 258.042C259.614 257.619 279.906 244.429 305.197 228.667C330.488 212.905 351.261 200.475 351.528 200.898Z" fill="url(#paint5_radial)"/>
<path d="M131.6 200.2L209.2 243.9L133 81.8L131.6 200.2Z" fill="url(#paint6_linear)"/>
<path d="M132.3 95.5C132.8 95.5 133.1 119.7 132.9 149.5C132.7 179.3 132.1 203.5 131.6 203.5C131.1 203.5 130.8 179.3 131 149.5C131.3 119.6 131.8 95.5 132.3 95.5Z" fill="url(#paint7_radial)"/>
<path d="M195.257 239.651C194.993 240.075 180.29 231.256 162.487 219.913C144.683 208.569 130.457 198.986 130.721 198.562C130.986 198.138 145.689 206.957 163.492 218.301C181.303 229.766 195.522 239.227 195.257 239.651Z" fill="url(#paint8_radial)"/>
<path d="M241 10.5L161.9 56L346.4 70.5L241 10.5Z" fill="url(#paint9_linear)"/>
<path d="M234 5.5C234.4 4.9 259.3 18.9 289.7 36.8C320.1 54.7 344.4 69.8 344 70.4C343.6 71 318.7 57 288.3 39.1C257.9 21.2 233.6 6.1 234 5.5Z" fill="url(#paint10_radial)"/>
<path d="M224.4 20C224.4 20.2 211.1 28.4 200.9 34.2C190.7 40 182 44.6 182 44.5C182 44.3 190.7 39.5 200.9 33.6C211.1 27.7 224.4 19.8 224.4 20Z" fill="white"/>
</g>
<defs>
<radialGradient id="paint0_radial" cx="0" cy="0" r="1" gradientUnits="userSpaceOnUse" gradientTransform="translate(251.465 41.23) scale(78.7467)">
<stop offset="0.13" stop-color="#FFEF00"/>
<stop offset="0.19" stop-color="#FFE403"/>
<stop offset="0.3" stop-color="#FFC60A"/>
<stop offset="0.45" stop-color="#FF9615"/>
<stop offset="0.63" stop-color="#FF5425"/>
<stop offset="0.8" stop-color="#FF0F36"/>
</radialGradient>
<radialGradient id="paint1_radial" cx="0" cy="0" r="1" gradientUnits="userSpaceOnUse" gradientTransform="translate(179.055 156.88) scale(78.9305)">
<stop offset="0.19" stop-color="#1BEB39"/>
<stop offset="0.45" stop-color="#24DF2E"/>
<stop offset="0.91" stop-color="#3DC00F"/>
<stop offset="1" stop-color="#42B909"/>
</radialGradient>
<linearGradient id="paint2_linear" x1="216.89" y1="182.625" x2="353" y2="182.625" gradientUnits="userSpaceOnUse">
<stop stop-color="#16E4DD"/>
<stop offset="0.5" stop-color="#0B34D9" stop-opacity="0.8"/>
</linearGradient>
<linearGradient id="paint3_linear" x1="390" y1="97" x2="249.787" y2="188.21" gradientUnits="userSpaceOnUse">
<stop stop-color="white"/>
<stop offset="0.08" stop-color="white" stop-opacity="0.8"/>
<stop offset="0.17" stop-color="white" stop-opacity="0.62"/>
<stop offset="0.26" stop-color="white" stop-opacity="0.45"/>
<stop offset="0.36" stop-color="white" stop-opacity="0.31"/>
<stop offset="0.46" stop-color="white" stop-opacity="0.2"/>
<stop offset="0.57" stop-color="white" stop-opacity="0.11"/>
<stop offset="0.68" stop-color="white" stop-opacity="0.05"/>
<stop offset="0.82" stop-color="white" stop-opacity="0.01"/>
<stop offset="1" stop-color="white" stop-opacity="0"/>
</linearGradient>
<radialGradient id="paint4_radial" cx="0" cy="0" r="1" gradientUnits="userSpaceOnUse" gradientTransform="translate(348.003 148.659) rotate(-89.6347) scale(54.4816 0.930495)">
<stop offset="0.2" stop-color="white"/>
<stop offset="0.59" stop-color="white" stop-opacity="0.04"/>
<stop offset="1" stop-color="white" stop-opacity="0"/>
</radialGradient>
<radialGradient id="paint5_radial" cx="0" cy="0" r="1" gradientUnits="userSpaceOnUse" gradientTransform="translate(306.444 229.065) rotate(-31.9506) scale(54.4816 0.930495)">
<stop offset="0.2" stop-color="white"/>
<stop offset="0.59" stop-color="white" stop-opacity="0.04"/>
<stop offset="1" stop-color="white" stop-opacity="0"/>
</radialGradient>
<linearGradient id="paint6_linear" x1="185.584" y1="259.953" x2="168.505" y2="92.5821" gradientUnits="userSpaceOnUse">
<stop stop-color="white" stop-opacity="0"/>
<stop offset="0.18" stop-color="white" stop-opacity="0.01"/>
<stop offset="0.32" stop-color="white" stop-opacity="0.05"/>
<stop offset="0.43" stop-color="white" stop-opacity="0.11"/>
<stop offset="0.54" stop-color="white" stop-opacity="0.2"/>
<stop offset="0.64" stop-color="white" stop-opacity="0.31"/>
<stop offset="0.74" stop-color="white" stop-opacity="0.45"/>
<stop offset="0.83" stop-color="white" stop-opacity="0.62"/>
<stop offset="0.92" stop-color="white" stop-opacity="0.8"/>
<stop offset="1" stop-color="white"/>
</linearGradient>
<radialGradient id="paint7_radial" cx="0" cy="0" r="1" gradientUnits="userSpaceOnUse" gradientTransform="translate(132.003 148.659) rotate(-89.6347) scale(54.4816 0.930497)">
<stop offset="0.2" stop-color="white"/>
<stop offset="0.59" stop-color="white" stop-opacity="0.04"/>
<stop offset="1" stop-color="white" stop-opacity="0"/>
</radialGradient>
<radialGradient id="paint8_radial" cx="0" cy="0" r="1" gradientUnits="userSpaceOnUse" gradientTransform="translate(163.467 219.467) rotate(32.4755) scale(38.5934 0.930479)">
<stop offset="0.2" stop-color="white"/>
<stop offset="0.59" stop-color="white" stop-opacity="0.04"/>
<stop offset="1" stop-color="white" stop-opacity="0"/>
</radialGradient>
<linearGradient id="paint9_linear" x1="179" y1="30.5" x2="323.14" y2="97.2888" gradientUnits="userSpaceOnUse">
<stop stop-color="white"/>
<stop offset="0.08" stop-color="white" stop-opacity="0.8"/>
<stop offset="0.17" stop-color="white" stop-opacity="0.62"/>
<stop offset="0.26" stop-color="white" stop-opacity="0.45"/>
<stop offset="0.36" stop-color="white" stop-opacity="0.31"/>
<stop offset="0.46" stop-color="white" stop-opacity="0.2"/>
<stop offset="0.57" stop-color="white" stop-opacity="0.11"/>
<stop offset="0.68" stop-color="white" stop-opacity="0.05"/>
<stop offset="0.82" stop-color="white" stop-opacity="0.01"/>
<stop offset="1" stop-color="white" stop-opacity="0"/>
</linearGradient>
<radialGradient id="paint10_radial" cx="0" cy="0" r="1" gradientUnits="userSpaceOnUse" gradientTransform="translate(288.445 38.7078) rotate(-149.437) scale(64.4362 1.34306)">
<stop offset="0.2" stop-color="white"/>
<stop offset="0.59" stop-color="white" stop-opacity="0.04"/>
<stop offset="1" stop-color="white" stop-opacity="0"/>
</radialGradient>
<clipPath id="clip0">
<rect width="478.59" height="163.07" fill="white" transform="translate(0 377.8)"/>
</clipPath>
<clipPath id="clip1">
<rect width="227" height="273.8" fill="white" transform="translate(126)"/>
</clipPath>
</defs>
</svg>
